# xmcd
#
# Track frame offsets:
#	150
#	28607
#	44665
#	59492
#	80600
#	107820
#	129042
#	141285
#	160397
#	184855
#
# Disc length: 2806 seconds
#
# Revision: 1
# Processed by: cddbd v1.4PL0 Copyright (c) Steve Scherf et al.
# Submitted via: EasyCDDAExtractor 5.1.0
#
DISCID=8b0af40a
DTITLE=詹永明 - 中國音樂家大系「器樂篇」-斷橋會
DYEAR=1900
DGENRE=國樂
TTITLE0=斷橋會
TTITLE1=揚鞭摧馬運糧忙
TTITLE2=和平鴿
TTITLE3=牧民新歌
TTITLE4=今昔
TTITLE5=三五七
TTITLE6=喜相逢
TTITLE7=蔭中鳥
TTITLE8=早晨
TTITLE9=姑蘇行
EXTD=
EXTT0=
EXTT1=
EXTT2=
EXTT3=
EXTT4=
EXTT5=
EXTT6=
EXTT7=
EXTT8=
EXTT9=
PLAYORDER=
